<svg xmlns="http://www.w3.org/2000/svg" xmlns:xlink="http://www.w3.org/1999/xlink" width="283" zoomAndPan="magnify" viewBox="0 0 212.25 41.25" height="55" preserveAspectRatio="xMidYMid meet" version="1.0"><defs><g/><clipPath id="1f9cf03dc3"><path d="M 21 17 L 59.347656 17 L 59.347656 24 L 21 24 Z M 21 17 " clip-rule="nonzero"/></clipPath><clipPath id="2ce07567a9"><path d="M 28 2.03125 L 59.347656 2.03125 L 59.347656 9 L 28 9 Z M 28 2.03125 " clip-rule="nonzero"/></clipPath><clipPath id="8a9c4938c8"><path d="M 44 10 L 59.347656 10 L 59.347656 16 L 44 16 Z M 44 10 " clip-rule="nonzero"/></clipPath><clipPath id="57d3bcd570"><path d="M 12.203125 17 L 19 17 L 19 24 L 12.203125 24 Z M 12.203125 17 " clip-rule="nonzero"/></clipPath><clipPath id="52cd3f7d6b"><path d="M 30 24 L 59.347656 24 L 59.347656 31 L 30 31 Z M 30 24 " clip-rule="nonzero"/></clipPath><clipPath id="d971ef6883"><path d="M 33 31 L 59.347656 31 L 59.347656 38 L 33 38 Z M 33 31 " clip-rule="nonzero"/></clipPath></defs><g clip-path="url(#1f9cf03dc3)"><path fill="#0c4160" d="M 75.585938 17.265625 L 45.261719 17.265625 L 43.964844 19.503906 L 40.964844 19.503906 L 39.671875 17.265625 C 38.554688 17.265625 24.5625 17.265625 23.445312 17.265625 L 21.773438 20.167969 L 23.445312 23.066406 C 24.5625 23.066406 38.554688 23.066406 39.671875 23.066406 L 40.964844 20.828125 L 43.964844 20.828125 L 45.261719 23.066406 L 75.585938 23.066406 C 75.921875 21.152344 75.921875 19.1875 75.585938 17.265625 Z M 75.585938 17.265625 " fill-opacity="1" fill-rule="nonzero"/></g><g clip-path="url(#2ce07567a9)"><path fill="#0c4160" d="M 33.949219 8.804688 L 35.246094 6.566406 L 38.246094 6.566406 L 39.539062 8.804688 L 71.511719 8.804688 C 65.503906 2.03125 58.761719 2.996094 50.636719 2.996094 L 39.539062 2.996094 L 38.246094 5.238281 L 35.246094 5.238281 L 33.949219 2.996094 L 30.601562 2.996094 L 28.925781 5.898438 L 30.601562 8.800781 L 33.949219 8.800781 Z M 33.949219 8.804688 " fill-opacity="1" fill-rule="nonzero"/></g><g clip-path="url(#8a9c4938c8)"><path fill="#0c4160" d="M 53.980469 12.375 L 50.980469 12.375 L 49.6875 10.132812 L 46.335938 10.132812 L 44.660156 13.035156 L 46.335938 15.9375 L 49.6875 15.9375 L 50.980469 13.695312 L 53.980469 13.695312 L 55.273438 15.9375 L 75.304688 15.9375 C 74.765625 13.816406 73.824219 11.855469 72.578125 10.128906 L 55.273438 10.128906 Z M 53.980469 12.375 " fill-opacity="1" fill-rule="nonzero"/></g><g clip-path="url(#57d3bcd570)"><path fill="#0c4160" d="M 13.878906 17.265625 L 12.207031 20.167969 L 13.878906 23.074219 L 17.234375 23.074219 L 18.910156 20.167969 L 17.234375 17.265625 Z M 13.878906 17.265625 " fill-opacity="1" fill-rule="nonzero"/></g><path fill="#0c4160" d="M 35.097656 13.035156 L 36.769531 15.9375 L 40.125 15.9375 L 41.800781 13.035156 L 40.125 10.132812 L 36.769531 10.132812 Z M 35.097656 13.035156 " fill-opacity="1" fill-rule="nonzero"/><path fill="#0c4160" d="M 25.328125 31.527344 L 23.648438 34.433594 L 25.328125 37.335938 L 28.679688 37.335938 L 30.351562 34.433594 L 28.679688 31.527344 Z M 25.328125 31.527344 " fill-opacity="1" fill-rule="nonzero"/><g clip-path="url(#52cd3f7d6b)"><path fill="#0c4160" d="M 39.671875 26.636719 L 36.671875 26.636719 L 35.378906 24.398438 L 32.027344 24.398438 L 30.351562 27.296875 L 32.027344 30.199219 L 35.378906 30.199219 L 36.671875 27.960938 L 39.671875 27.960938 L 40.964844 30.199219 L 72.570312 30.199219 C 73.820312 28.472656 74.757812 26.507812 75.300781 24.390625 C 64.804688 24.390625 51.453125 24.390625 40.960938 24.390625 Z M 39.671875 26.636719 " fill-opacity="1" fill-rule="nonzero"/></g><g clip-path="url(#d971ef6883)"><path fill="#0c4160" d="M 48.257812 33.773438 L 45.261719 33.773438 L 43.964844 31.535156 C 40.945312 31.535156 37.917969 31.535156 34.890625 31.535156 L 33.214844 34.433594 L 34.890625 37.335938 C 37.917969 37.335938 40.9375 37.335938 43.964844 37.335938 L 45.261719 35.097656 L 48.257812 35.097656 L 49.554688 37.335938 C 58.136719 37.335938 65.347656 38.480469 71.511719 31.527344 L 49.554688 31.527344 Z M 48.257812 33.773438 " fill-opacity="1" fill-rule="nonzero"/></g><g fill="#68869a" fill-opacity="1"><g transform="translate(67.65996, 27.174812)"><g><path d="M 4.5625 0 L 1.390625 0 L 1.390625 -15.65625 L 4.5625 -15.65625 Z M 4.5625 0 "/></g></g></g><g fill="#68869a" fill-opacity="1"><g transform="translate(78.01763, 27.174812)"><g><path d="M 12.203125 0 L 9.046875 0 L 4.421875 -10.265625 L 4.421875 0 L 1.25 0 L 1.25 -15.65625 L 4.421875 -15.65625 L 9.046875 -5.375 L 9.046875 -15.65625 L 12.203125 -15.65625 Z M 12.203125 0 "/></g></g></g><g fill="#68869a" fill-opacity="1"><g transform="translate(95.8983, 27.174812)"><g><path d="M 11.390625 -13.015625 L 7.53125 -13.015625 L 7.53125 0 L 4.359375 0 L 4.359375 -13.015625 L 0.546875 -13.015625 L 0.546875 -15.65625 L 11.390625 -15.65625 Z M 11.390625 -13.015625 "/></g></g></g><g fill="#68869a" fill-opacity="1"><g transform="translate(112.252876, 27.174812)"><g><path d="M 9.34375 -6.765625 L 4.421875 -6.765625 L 4.421875 -2.625 L 10.25 -2.625 L 10.25 0 L 1.25 0 L 1.25 -15.65625 L 10.21875 -15.65625 L 10.21875 -13.015625 L 4.421875 -13.015625 L 4.421875 -9.3125 L 9.34375 -9.3125 Z M 9.34375 -6.765625 "/></g></g></g><g fill="#68869a" fill-opacity="1"><g transform="translate(127.457507, 27.174812)"><g><path d="M 6 -5.71875 L 4.421875 -5.71875 L 4.421875 0 L 1.265625 0 L 1.265625 -15.65625 L 6.3125 -15.65625 C 7.894531 -15.65625 9.117188 -15.242188 9.984375 -14.421875 C 10.847656 -13.597656 11.28125 -12.429688 11.28125 -10.921875 C 11.28125 -8.835938 10.523438 -7.382812 9.015625 -6.5625 L 11.75 -0.15625 L 11.75 0 L 8.359375 0 Z M 4.421875 -8.359375 L 6.21875 -8.359375 C 6.851562 -8.359375 7.328125 -8.566406 7.640625 -8.984375 C 7.953125 -9.398438 8.109375 -9.957031 8.109375 -10.65625 C 8.109375 -12.226562 7.5 -13.015625 6.28125 -13.015625 L 4.421875 -13.015625 Z M 4.421875 -8.359375 "/></g></g></g><g fill="#0c4160" fill-opacity="1"><g transform="translate(144.049012, 27.174812)"><g><path d="M 4.421875 -2.625 L 9.96875 -2.625 L 9.96875 0 L 1.25 0 L 1.25 -15.65625 L 4.421875 -15.65625 Z M 4.421875 -2.625 "/></g></g></g><g fill="#0c4160" fill-opacity="1"><g transform="translate(158.984966, 27.174812)"><g><path d="M 4.5625 0 L 1.390625 0 L 1.390625 -15.65625 L 4.5625 -15.65625 Z M 4.5625 0 "/></g></g></g><g fill="#0c4160" fill-opacity="1"><g transform="translate(169.342635, 27.174812)"><g><path d="M 12.203125 0 L 9.046875 0 L 4.421875 -10.265625 L 4.421875 0 L 1.25 0 L 1.25 -15.65625 L 4.421875 -15.65625 L 9.046875 -5.375 L 9.046875 -15.65625 L 12.203125 -15.65625 Z M 12.203125 0 "/></g></g></g><g fill="#0c4160" fill-opacity="1"><g transform="translate(187.223306, 27.174812)"><g><path d="M 5.671875 -6.046875 L 4.421875 -4.46875 L 4.421875 0 L 1.25 0 L 1.25 -15.65625 L 4.421875 -15.65625 L 4.421875 -8.828125 L 5.421875 -10.515625 L 8.328125 -15.65625 L 12.203125 -15.65625 L 7.71875 -8.765625 L 12.28125 0 L 8.53125 0 Z M 5.671875 -6.046875 "/></g></g></g></svg>