<svg xmlns="http://www.w3.org/2000/svg" xmlns:xlink="http://www.w3.org/1999/xlink" width="283" zoomAndPan="magnify" viewBox="0 0 212.25 41.25" height="55" preserveAspectRatio="xMidYMid meet" version="1.0"><defs><g/><clipPath id="64674486db"><path d="M 19 17 L 57.878906 17 L 57.878906 24 L 19 24 Z M 19 17 " clip-rule="nonzero"/></clipPath><clipPath id="10b6255457"><path d="M 26 2 L 57.878906 2 L 57.878906 9 L 26 9 Z M 26 2 " clip-rule="nonzero"/></clipPath><clipPath id="55d0181148"><path d="M 42 9 L 57.878906 9 L 57.878906 16 L 42 16 Z M 42 9 " clip-rule="nonzero"/></clipPath><clipPath id="55f9bebb18"><path d="M 9.261719 17 L 17 17 L 17 24 L 9.261719 24 Z M 9.261719 17 " clip-rule="nonzero"/></clipPath><clipPath id="c242f2b4be"><path d="M 27 24 L 57.878906 24 L 57.878906 31 L 27 31 Z M 27 24 " clip-rule="nonzero"/></clipPath><clipPath id="7e741663b0"><path d="M 30 31 L 57.878906 31 L 57.878906 38 L 30 38 Z M 30 31 " clip-rule="nonzero"/></clipPath></defs><g clip-path="url(#64674486db)"><path fill="#0c4160" d="M 74.542969 17.234375 L 43.308594 17.234375 L 41.972656 19.539062 L 38.886719 19.539062 L 37.550781 17.234375 C 36.402344 17.234375 21.988281 17.234375 20.839844 17.234375 L 19.113281 20.222656 L 20.839844 23.210938 C 21.988281 23.210938 36.402344 23.210938 37.550781 23.210938 L 38.886719 20.902344 L 41.972656 20.902344 L 43.308594 23.210938 L 74.542969 23.210938 C 74.886719 21.234375 74.886719 19.214844 74.542969 17.234375 Z M 74.542969 17.234375 " fill-opacity="1" fill-rule="nonzero"/></g><g clip-path="url(#10b6255457)"><path fill="#0c4160" d="M 31.660156 8.519531 L 32.992188 6.214844 L 36.082031 6.214844 L 37.414062 8.519531 L 70.347656 8.519531 C 64.15625 1.542969 57.214844 2.539062 48.84375 2.539062 L 37.414062 2.539062 L 36.082031 4.84375 L 32.992188 4.84375 L 31.660156 2.539062 L 28.207031 2.539062 L 26.484375 5.527344 L 28.207031 8.515625 L 31.660156 8.515625 Z M 31.660156 8.519531 " fill-opacity="1" fill-rule="nonzero"/></g><g clip-path="url(#55d0181148)"><path fill="#0c4160" d="M 52.289062 12.195312 L 49.199219 12.195312 L 47.867188 9.890625 L 44.417969 9.890625 L 42.691406 12.878906 L 44.417969 15.863281 L 47.867188 15.863281 L 49.199219 13.558594 L 52.289062 13.558594 L 53.621094 15.863281 L 74.253906 15.863281 C 73.695312 13.683594 72.730469 11.660156 71.445312 9.882812 L 53.621094 9.882812 Z M 52.289062 12.195312 " fill-opacity="1" fill-rule="nonzero"/></g><g clip-path="url(#55f9bebb18)"><path fill="#0c4160" d="M 10.988281 17.234375 L 9.261719 20.222656 L 10.988281 23.214844 L 14.441406 23.214844 L 16.167969 20.222656 L 14.441406 17.234375 Z M 10.988281 17.234375 " fill-opacity="1" fill-rule="nonzero"/></g><path fill="#0c4160" d="M 32.839844 12.878906 L 34.5625 15.863281 L 38.019531 15.863281 L 39.746094 12.878906 L 38.019531 9.890625 L 34.5625 9.890625 Z M 32.839844 12.878906 " fill-opacity="1" fill-rule="nonzero"/><path fill="#0c4160" d="M 22.777344 31.925781 L 21.046875 34.917969 L 22.777344 37.90625 L 26.226562 37.90625 L 27.953125 34.917969 L 26.226562 31.925781 Z M 22.777344 31.925781 " fill-opacity="1" fill-rule="nonzero"/><g clip-path="url(#c242f2b4be)"><path fill="#0c4160" d="M 37.550781 26.886719 L 34.460938 26.886719 L 33.128906 24.578125 L 29.679688 24.578125 L 27.953125 27.566406 L 29.679688 30.554688 L 33.128906 30.554688 L 34.460938 28.25 L 37.550781 28.25 L 38.886719 30.554688 L 71.4375 30.554688 C 72.722656 28.777344 73.691406 26.753906 74.246094 24.574219 C 63.441406 24.574219 49.6875 24.574219 38.878906 24.574219 Z M 37.550781 26.886719 " fill-opacity="1" fill-rule="nonzero"/></g><g clip-path="url(#7e741663b0)"><path fill="#0c4160" d="M 46.394531 34.238281 L 43.308594 34.238281 L 41.972656 31.929688 C 38.863281 31.929688 35.742188 31.929688 32.625 31.929688 L 30.898438 34.917969 L 32.625 37.90625 C 35.742188 37.90625 38.855469 37.90625 41.972656 37.90625 L 43.308594 35.601562 L 46.394531 35.601562 L 47.730469 37.90625 C 56.570312 37.90625 63.996094 39.085938 70.347656 31.925781 L 47.730469 31.925781 Z M 46.394531 34.238281 " fill-opacity="1" fill-rule="nonzero"/></g><g fill="#68869a" fill-opacity="1"><g transform="translate(66.372433, 27.441139)"><g><path d="M 4.6875 0 L 1.4375 0 L 1.4375 -16.125 L 4.6875 -16.125 Z M 4.6875 0 "/></g></g></g><g fill="#68869a" fill-opacity="1"><g transform="translate(77.040896, 27.441139)"><g><path d="M 12.5625 0 L 9.3125 0 L 4.546875 -10.578125 L 4.546875 0 L 1.296875 0 L 1.296875 -16.125 L 4.546875 -16.125 L 9.328125 -5.53125 L 9.328125 -16.125 L 12.5625 -16.125 Z M 12.5625 0 "/></g></g></g><g fill="#e4a31b" fill-opacity="1"><g transform="translate(95.461709, 27.441139)"><g><path d="M 11.734375 -13.40625 L 7.75 -13.40625 L 7.75 0 L 4.484375 0 L 4.484375 -13.40625 L 0.5625 -13.40625 L 0.5625 -16.125 L 11.734375 -16.125 Z M 11.734375 -13.40625 "/></g></g></g><g fill="#68869a" fill-opacity="1"><g transform="translate(112.309796, 27.441139)"><g><path d="M 9.625 -6.96875 L 4.546875 -6.96875 L 4.546875 -2.703125 L 10.546875 -2.703125 L 10.546875 0 L 1.296875 0 L 1.296875 -16.125 L 10.53125 -16.125 L 10.53125 -13.40625 L 4.546875 -13.40625 L 4.546875 -9.59375 L 9.625 -9.59375 Z M 9.625 -6.96875 "/></g></g></g><g fill="#68869a" fill-opacity="1"><g transform="translate(127.970659, 27.441139)"><g><path d="M 6.171875 -5.890625 L 4.5625 -5.890625 L 4.5625 0 L 1.3125 0 L 1.3125 -16.125 L 6.5 -16.125 C 8.125 -16.125 9.378906 -15.695312 10.265625 -14.84375 C 11.160156 -14 11.609375 -12.800781 11.609375 -11.25 C 11.609375 -9.101562 10.832031 -7.601562 9.28125 -6.75 L 12.09375 -0.15625 L 12.09375 0 L 8.609375 0 Z M 4.5625 -8.609375 L 6.40625 -8.609375 C 7.0625 -8.609375 7.550781 -8.820312 7.875 -9.25 C 8.195312 -9.675781 8.359375 -10.253906 8.359375 -10.984375 C 8.359375 -12.597656 7.726562 -13.40625 6.46875 -13.40625 L 4.5625 -13.40625 Z M 4.5625 -8.609375 "/></g></g></g><g fill="#e4a31b" fill-opacity="1"><g transform="translate(145.061363, 27.441139)"><g><path d="M 4.546875 -2.703125 L 10.265625 -2.703125 L 10.265625 0 L 1.296875 0 L 1.296875 -16.125 L 4.546875 -16.125 Z M 4.546875 -2.703125 "/></g></g></g><g fill="#0c4160" fill-opacity="1"><g transform="translate(160.446085, 27.441139)"><g><path d="M 4.6875 0 L 1.4375 0 L 1.4375 -16.125 L 4.6875 -16.125 Z M 4.6875 0 "/></g></g></g><g fill="#0c4160" fill-opacity="1"><g transform="translate(171.114547, 27.441139)"><g><path d="M 12.5625 0 L 9.3125 0 L 4.546875 -10.578125 L 4.546875 0 L 1.296875 0 L 1.296875 -16.125 L 4.546875 -16.125 L 9.328125 -5.53125 L 9.328125 -16.125 L 12.5625 -16.125 Z M 12.5625 0 "/></g></g></g><g fill="#e4a31b" fill-opacity="1"><g transform="translate(189.535358, 27.441139)"><g><path d="M 5.828125 -6.21875 L 4.546875 -4.609375 L 4.546875 0 L 1.296875 0 L 1.296875 -16.125 L 4.546875 -16.125 L 4.546875 -9.09375 L 5.578125 -10.828125 L 8.578125 -16.125 L 12.5625 -16.125 L 7.953125 -9.03125 L 12.640625 0 L 8.78125 0 Z M 5.828125 -6.21875 "/></g></g></g></svg>